<?xml version="1.0" encoding="UTF-8" standalone="no"?>
<svg
   xmlns:dc="http://purl.org/dc/elements/1.1/"
   xmlns:cc="http://creativecommons.org/ns#"
   xmlns:rdf="http://www.w3.org/1999/02/22-rdf-syntax-ns#"
   xmlns:svg="http://www.w3.org/2000/svg"
   xmlns="http://www.w3.org/2000/svg"
   xmlns:sodipodi="http://sodipodi.sourceforge.net/DTD/sodipodi-0.dtd"
   xmlns:inkscape="http://www.inkscape.org/namespaces/inkscape"
   id="Icons"
   style="enable-background:new 0 0 32 32;"
   version="1.1"
   viewBox="0 0 32 32"
   xml:space="preserve"
   sodipodi:docname="iconfinder_Text_Editing_format_color_bucket_paint_6646342.svg"
   inkscape:version="1.0.2 (e86c870879, 2021-01-15, custom)"><metadata
     id="metadata15"><rdf:RDF><cc:Work
         rdf:about=""><dc:format>image/svg+xml</dc:format><dc:type
           rdf:resource="http://purl.org/dc/dcmitype/StillImage" /></cc:Work></rdf:RDF></metadata><defs
     id="defs13" /><sodipodi:namedview
     pagecolor="#ffffff"
     bordercolor="#666666"
     borderopacity="1"
     objecttolerance="10"
     gridtolerance="10"
     guidetolerance="10"
     inkscape:pageopacity="0"
     inkscape:pageshadow="2"
     inkscape:window-width="1920"
     inkscape:window-height="1137"
     id="namedview11"
     showgrid="false"
     inkscape:zoom="15.15625"
     inkscape:cx="-1.5531995"
     inkscape:cy="22.587975"
     inkscape:window-x="-8"
     inkscape:window-y="-8"
     inkscape:window-maximized="1"
     inkscape:current-layer="Icons" /><g
     id="g8"><path
       d="M 29,26 H 3 c -0.6,0 -1,0.8106 -1,2.0265 0,1.2159 0.4,2.0265 1,2.0265 h 26 c 0.6,0 1,-0.8106 1,-2.0265 C 30,26.8106 29.6,26 29,26 Z"
       id="path2"
       style="stroke-width:1.42355" /><path
       d="m 6.4,16.7 c 0,0 0,0 0,0 l 7,7 c 0.2,0.2 0.4,0.3 0.7,0.3 0.3,0 0.5,-0.1 0.7,-0.3 l 6.9,-6.9 c 0,0 0,0 0,0 l 1.5,-1.5 c 0.4,-0.4 0.4,-1 0,-1.4 l -8.9,-9 c 0,0 0,0 0,0 L 11.8,2.4 C 11.4,2 10.8,2 10.4,2.4 10,2.8 10,3.4 10.4,3.8 l 1.8,1.8 -7.7,7.7 c -0.4,0.4 -0.4,1 0,1.4 z M 13.6,7 14,7.5 c 0,0 0,0 0,0 l 7,7 -0.4,0.5 H 7.5 l -1,-1 z"
       id="path4" /><path
       d="m 25,24 c 1.7,0 3,-1.3 3,-3 0,-1.4 -1.8,-3.2 -2.3,-3.7 -0.4,-0.4 -1,-0.4 -1.4,0 -0.5,0.5 -2.3,2.3 -2.3,3.7 0,1.7 1.3,3 3,3 z"
       id="path6" /></g></svg>
